
<svg version="1.1" id="Layer_2" xmlns="http://www.w3.org/2000/svg" xmlns:xlink="http://www.w3.org/1999/xlink" x="0px" y="0px"
	 width="831.895px" height="570.733px" viewBox="0 0 831.895 570.733" enable-background="new 0 0 831.895 570.733"
	 xml:space="preserve">
<g>
	<path fill="#FFFFFF" d="M266.431,337.079l-51.026-219.315h27.453l23.872,110.959c5.968,27.333,11.339,54.666,14.92,75.816h0.597
		l16.412-57.657l26.856-92.032h27.154l24.469,92.683l14.024,56.681h0.597c4.177-24.079,9.847-48.484,16.114-75.817l26.558-110.634
		h26.558l-56.995,219.315h-27.155l-25.364-95.729l-13.13-52.984h-0.597l-15.517,52.984l-28.646,95.729H266.431z"/>
	<path fill="#FFFFFF" d="M639.13,327.317c-11.638,4.556-34.614,12.039-61.769,12.039c-30.438,0-55.503-8.46-75.197-28.96
		c-17.307-18.222-28.05-47.507-28.05-81.673c0.299-65.404,41.478-113.237,108.917-113.237c23.274,0,41.478,5.532,50.131,10.087
		l-6.267,23.103c-10.742-5.207-24.17-9.437-44.462-9.437c-48.938,0-80.866,33.19-80.866,88.182
		c0,55.643,30.735,88.507,77.584,88.507c17.009,0,28.646-2.604,34.614-5.857v-65.404h-40.881V221.89h66.245V327.317z"/>
	<path fill="#FFFFFF" d="M711.341,268.096l-20.888,68.983h-26.856l68.334-219.315h31.332l68.632,219.315h-27.751l-21.485-68.983
		H711.341z M777.287,245.969l-19.694-63.126c-4.476-14.317-7.46-27.333-10.443-40.023h-0.598
		c-2.983,13.016-6.266,26.357-10.146,39.698l-19.694,63.452H777.287z"/>
</g>
<g>
	<radialGradient id="SVGID_1_" cx="342.6978" cy="113.1123" r="31.5867" gradientUnits="userSpaceOnUse">
		<stop  offset="0" style="stop-color:#FFFFFF"/>
		<stop  offset="1" style="stop-color:#808080"/>
	</radialGradient>
	<path fill="url(#SVGID_1_)" d="M338.196,149.351c-17.417,0-31.587-14.17-31.587-31.587s14.17-31.587,31.587-31.587
		s31.587,14.17,31.587,31.587S355.613,149.351,338.196,149.351z"/>
	<path fill="#FFFFFF" d="M338.196,89.677c15.487,0,28.087,12.6,28.087,28.087s-12.6,28.087-28.087,28.087
		s-28.087-12.6-28.087-28.087S322.709,89.677,338.196,89.677 M338.196,82.677c-19.378,0-35.087,15.709-35.087,35.087
		s15.709,35.087,35.087,35.087s35.087-15.709,35.087-35.087S357.574,82.677,338.196,82.677L338.196,82.677z"/>
</g>
<path opacity="0.6" fill="#E67E00" d="M381.434,339.356C520.798,199.992,569.099,57.102,541.432,29.435S394.1,79.434,394.1,79.434
	s145.336-104.001,182-74c25.833,23.667,28.998,147.001-177.333,353.333C180.433,577.102,56.1,595.435,12.1,551.435
	c-60.667-78,126.667-252,124-250s-139,171.333-90.667,219.667C81.775,557.442,245.996,474.794,381.434,339.356z"/>
<path id="_x3C_Path_x3E_" fill="#FFFFFF" d="M188.258,234.255h-78.181v79.07H208.1v23.754H84.116V117.764h119.508v23.754h-93.547
	v69.309h78.181V234.255z"/>
</svg>
