<svg xmlns="http://www.w3.org/2000/svg" width="792" height="206" viewBox="0 192 792 206"><style>  .a{fill:#4DA9DE;}</style><path d="M740 230.2v167h38.6V230.6L740 230.2z" class="a"/><path d="M692.9 230.6v76.1l43.8 88.7v-75.3L692.9 230.6z" class="a"/><path d="M650.6 230.4v166.6h38.2l0.2-166.4L650.6 230.4z" class="a"/><path d="M528.5 358.4v38.2h115.4v-38.4L528.5 358.4z" class="a"/><path d="M606.2 272.9l-0.2 82.2 38-0.2 0.2-82.4L606.2 272.9z" class="a"/><path d="M528.7 272.5v81.6l38.6 0.4v-82H528.7z" class="a"/><path d="M528.7 230.6v38.2h115.4v-38L528.7 230.6z" class="a"/><path d="M452.6 272.7h36.7v124.1l-36.7 0.2V272.7z" class="a"/><path d="M419.6 230.4v38.4h102.4v-38.4H419.6z" class="a"/><path d="M374 397h37.5V230.2h-37.7L374 397z" class="a"/><path d="M307.2 346.3v50.8l31.5-31.5 31 31V346l-17.8-17.8h-28.4L307.2 346.3z" class="a"/><path d="M266 230.9v166h38.2V230.9H266z" class="a"/><path d="M142.8 352v45h115.2V352.2L142.8 352z" class="a"/><path d="M142.4 294.2l0.4 37.9h114.8l-0.4-38.1L142.4 294.2z" class="a"/><path d="M143.2 230.9l0.2 44.2h114.8l-0.2-44.7L143.2 230.9z" class="a"/><path d="M7.9 190.3v206.1l39.7 0.7V282.5l50.8 114.3 39.3 0.2V230.2l39-39.3-77.9 0.2v115L47.3 190.7 7.9 190.3z" class="a"/></svg>